<svg viewBox="0 0 100 100" xmlns="http://www.w3.org/2000/svg">
  <defs>
    <linearGradient id="faviconGradient" x1="0%" y1="0%" x2="100%" y2="100%">
      <stop offset="0%" style="stop-color:#6366f1;stop-opacity:1" />
      <stop offset="50%" style="stop-color:#8b5cf6;stop-opacity:1" />
      <stop offset="100%" style="stop-color:#ec4899;stop-opacity:1" />
    </linearGradient>
    <filter id="faviconGlow">
      <feGaussianBlur stdDeviation="2" result="coloredBlur"/>
      <feMerge> 
        <feMergeNode in="coloredBlur"/>
        <feMergeNode in="SourceGraphic"/>
      </feMerge>
    </filter>
  </defs>
  
  <!-- Círculo principal -->
  <circle cx="50" cy="50" r="40" 
          fill="url(#faviconGradient)" 
          opacity="0.95"
          filter="url(#faviconGlow)"/>
  
  <!-- Nodos de conexión principales -->
  <circle cx="50" cy="30" r="6" fill="white" opacity="0.95"/>
  <circle cx="70" cy="50" r="6" fill="white" opacity="0.95"/>
  <circle cx="50" cy="70" r="6" fill="white" opacity="0.95"/>
  <circle cx="30" cy="50" r="6" fill="white" opacity="0.95"/>
  
  <!-- Nodos secundarios -->
  <circle cx="42" cy="38" r="4" fill="white" opacity="0.85"/>
  <circle cx="58" cy="38" r="4" fill="white" opacity="0.85"/>
  <circle cx="58" cy="62" r="4" fill="white" opacity="0.85"/>
  <circle cx="42" cy="62" r="4" fill="white" opacity="0.85"/>
  
  <!-- Líneas de conexión principales -->
  <line x1="50" y1="30" x2="70" y2="50" stroke="white" stroke-width="3" opacity="0.8"/>
  <line x1="70" y1="50" x2="50" y2="70" stroke="white" stroke-width="3" opacity="0.8"/>
  <line x1="50" y1="70" x2="30" y2="50" stroke="white" stroke-width="3" opacity="0.8"/>
  <line x1="30" y1="50" x2="50" y2="30" stroke="white" stroke-width="3" opacity="0.8"/>
  
  <!-- Líneas de conexión secundarias -->
  <line x1="42" y1="38" x2="58" y2="38" stroke="white" stroke-width="2" opacity="0.7"/>
  <line x1="58" y1="38" x2="58" y2="62" stroke="white" stroke-width="2" opacity="0.7"/>
  <line x1="58" y1="62" x2="42" y2="62" stroke="white" stroke-width="2" opacity="0.7"/>
  <line x1="42" y1="62" x2="42" y2="38" stroke="white" stroke-width="2" opacity="0.7"/>
  
  <!-- Puntos de expansión -->
  <circle cx="85" cy="25" r="3" fill="url(#faviconGradient)" opacity="0.7"/>
  <circle cx="15" cy="35" r="3" fill="url(#faviconGradient)" opacity="0.7"/>
  <circle cx="85" cy="75" r="3" fill="url(#faviconGradient)" opacity="0.7"/>
  <circle cx="15" cy="65" r="3" fill="url(#faviconGradient)" opacity="0.7"/>
</svg>